<?xml version="1.0" standalone="no"?>
<!DOCTYPE svg PUBLIC "-//W3C//DTD SVG 20010904//EN"
 "http://www.w3.org/TR/2001/REC-SVG-20010904/DTD/svg10.dtd">
<svg version="1.0" xmlns="http://www.w3.org/2000/svg"
 width="700.000000pt" height="700.000000pt" viewBox="0 0 700.000000 700.000000"
 preserveAspectRatio="xMidYMid meet">
<metadata>
Created by potrace 1.14, written by Peter Selinger 2001-2017
</metadata>
<g transform="translate(0.000000,700.000000) scale(0.100000,-0.100000)"
fill="#000000" stroke="none">
<path d="M2664 6552 c-103 -100 -134 -144 -165 -234 -85 -252 55 -521 326
-623 36 -14 86 -27 113 -30 35 -4 1095 -9 1265 -6 l28 1 -1 183 c-1 108 -6
198 -13 220 -18 58 -77 138 -128 172 -93 64 -116 67 -556 69 -442 3 -441 3
-553 74 -73 46 -120 98 -172 188 -24 40 -45 73 -48 74 -3 0 -46 -40 -96 -88z"/>
<path d="M2770 5362 l0 -250 42 4 c49 5 81 23 105 61 15 22 17 53 18 209 l1
183 -66 15 c-36 8 -73 18 -82 21 -17 7 -18 -9 -18 -243z"/>
<path d="M3030 5390 c0 -96 -5 -192 -11 -213 -12 -43 -68 -111 -110 -132 -15
-8 -53 -18 -83 -21 l-57 -7 1 -238 c1 -142 6 -252 12 -273 19 -60 75 -108 184
-156 96 -41 180 -79 274 -122 272 -124 237 -126 602 37 159 70 301 140 317
154 62 56 70 93 71 360 l1 241 -23 1 c-81 2 -125 19 -172 65 -57 58 -61 73
-66 284 l-5 195 -467 0 -468 0 0 -175z"/>
<path d="M4069 5565 c-1 0 -2 -80 -3 -179 -2 -192 4 -216 56 -250 27 -17 81
-27 97 -17 8 5 11 69 9 227 l-3 219 -77 0 c-43 0 -79 1 -79 0z"/>
<path d="M2595 5303 c-58 -31 -82 -77 -84 -157 -1 -94 50 -162 135 -180 l31
-7 0 181 0 180 -26 0 c-14 -1 -39 -8 -56 -17z"/>
<path d="M4324 5140 l0 -181 25 6 c91 22 132 72 137 168 5 103 -40 169 -123
183 l-40 6 1 -182z"/>
<path d="M5365 4909 c-72 -8 -125 -18 -138 -26 -12 -7 28 -24 131 -53 l82 -23
109 34 c60 18 108 36 105 40 -5 9 -126 30 -185 32 -24 1 -71 -1 -104 -4z"/>
<path d="M5033 4793 c-98 -68 -91 -51 -93 -224 -1 -85 -2 -159 -1 -166 1 -15
219 -85 235 -75 7 4 58 40 114 81 l102 74 0 121 0 121 -148 44 c-81 25 -152
46 -158 48 -5 2 -28 -9 -51 -24z"/>
<path d="M5645 4773 c-82 -25 -152 -48 -155 -50 -2 -2 -5 -56 -5 -119 -1 -132
-13 -111 132 -218 l93 -68 114 37 114 37 -3 161 c-2 89 -4 165 -4 169 -1 7
-125 99 -132 97 -2 0 -71 -21 -154 -46z"/>
<path d="M4817 4573 c-28 -41 -81 -162 -91 -209 -18 -81 -28 -174 -18 -174 4
1 35 42 70 92 l64 91 2 119 c2 65 2 118 1 118 -1 0 -14 -17 -28 -37z"/>
<path d="M6031 4495 l1 -120 66 -92 c36 -51 67 -93 70 -93 8 0 -7 123 -22 180
-19 72 -46 135 -85 196 l-31 49 1 -120z"/>
<path d="M5333 4327 c-56 -39 -102 -78 -102 -85 -1 -14 68 -233 76 -242 8 -9
255 -5 263 5 4 6 22 57 40 115 18 58 35 110 37 116 3 9 -194 164 -208 164 -2
0 -50 -33 -106 -73z"/>
<path d="M4811 4168 c-101 -146 -99 -139 -62 -239 l21 -54 132 -45 c73 -25
143 -48 156 -52 20 -6 30 3 76 65 94 128 90 104 42 249 -23 70 -46 132 -51
137 -9 8 -198 71 -215 71 -3 0 -48 -60 -99 -132z"/>
<path d="M5845 4264 l-100 -34 -44 -130 c-24 -72 -40 -137 -37 -146 4 -10 34
-54 68 -100 l61 -82 46 14 c25 7 95 31 156 53 120 42 117 40 150 147 12 39 11
44 -19 90 -61 98 -158 224 -169 223 -7 0 -57 -16 -112 -35z"/>
<path d="M3130 3827 l0 -343 169 -141 c206 -173 204 -171 225 -151 8 9 90 78
181 154 l165 137 0 344 c0 225 -3 343 -10 343 -6 0 -18 -4 -28 -10 -9 -5 -69
-33 -132 -62 -110 -49 -119 -52 -200 -52 -72 0 -94 4 -145 28 -145 68 -208 96
-216 96 -5 0 -9 -154 -9 -343z"/>
<path d="M5323 3902 c-28 -3 -42 -16 -98 -93 -37 -50 -65 -94 -63 -98 2 -4 46
-65 98 -134 l94 -127 83 0 82 0 92 123 c51 67 96 127 100 132 4 6 -24 52 -61
104 l-69 94 -113 1 c-62 1 -127 0 -145 -2z"/>
<path d="M4859 3734 c16 -29 70 -85 123 -127 49 -40 190 -117 214 -117 8 0
-11 33 -49 83 -83 110 -73 102 -173 136 -49 16 -97 32 -108 37 -16 6 -17 4 -7
-12z"/>
<path d="M5911 3712 l-105 -37 -58 -75 c-32 -41 -63 -83 -69 -93 -9 -17 -8
-18 13 -12 89 27 229 122 296 203 24 29 40 52 35 51 -4 0 -55 -17 -112 -37z"/>
<path d="M2983 3658 c-18 -6 -33 -14 -33 -18 0 -4 19 -23 43 -43 l43 -35 0 54
c0 57 -1 58 -53 42z"/>
<path d="M3963 3615 c1 -25 5 -45 8 -45 3 0 23 15 45 34 l39 34 -40 11 c-55
15 -53 16 -52 -34z"/>
<path d="M2240 3259 c-327 -182 -626 -347 -664 -367 -88 -48 -158 -110 -195
-175 -17 -30 -48 -123 -74 -222 -25 -93 -58 -215 -73 -270 -14 -55 -45 -173
-69 -262 l-43 -163 37 -6 c20 -3 51 -10 70 -15 19 -4 36 -7 37 -6 1 1 27 99
59 217 163 611 164 613 196 659 37 55 62 73 249 183 80 47 251 147 380 223
129 76 251 148 270 160 19 13 40 24 45 26 6 2 98 56 205 120 107 64 210 124
228 135 17 10 32 22 32 25 0 11 -73 69 -85 69 -5 -1 -278 -150 -605 -331z"/>
<path d="M4107 3559 c-21 -17 -37 -35 -37 -38 0 -6 99 -66 303 -185 112 -64
616 -362 637 -375 14 -8 34 -21 45 -26 92 -50 365 -219 386 -238 62 -59 67
-73 204 -597 37 -140 72 -271 77 -291 10 -35 11 -36 47 -28 20 4 51 10 69 13
19 2 35 6 37 8 2 3 -36 149 -156 593 -22 83 -47 176 -55 208 -38 153 -94 210
-339 342 -38 21 -74 41 -80 45 -5 4 -41 25 -80 45 -85 46 -136 74 -195 107
-25 14 -110 61 -190 105 -80 44 -161 89 -180 100 -191 108 -441 243 -448 243
-5 0 -25 -14 -45 -31z"/>
<path d="M2910 3395 c-149 -88 -560 -330 -935 -550 -176 -103 -333 -200 -348
-214 -49 -45 -37 -8 -196 -606 -38 -143 -66 -263 -62 -266 3 -4 83 -21 176
-38 94 -17 181 -33 195 -36 30 -6 136 -25 170 -31 14 -3 57 -11 97 -19 112
-23 103 -33 103 111 l0 125 47 -3 47 -3 0 -267 0 -268 1296 0 1296 0 0 268 0
267 47 3 47 3 0 -125 c0 -94 3 -126 13 -126 6 0 46 6 87 14 41 8 89 17 105 20
17 3 41 8 55 11 29 5 55 10 165 30 79 15 107 20 155 30 53 10 86 16 119 21 19
2 37 7 42 9 7 5 -7 63 -116 470 -25 94 -55 207 -66 251 -24 95 -44 132 -91
167 -32 24 -213 133 -408 245 -52 30 -111 64 -130 77 -88 57 -824 485 -834
485 -6 0 -23 -10 -37 -23 -15 -12 -116 -96 -225 -187 -110 -90 -200 -168 -202
-172 -9 -19 -37 -1 -159 100 -71 59 -148 123 -172 142 -24 19 -48 40 -55 45
-6 6 -36 31 -66 56 l-55 46 -105 -62z m1775 -969 c0 -139 -4 -234 -10 -241
-20 -25 -276 -196 -288 -193 -7 2 -74 46 -150 98 l-136 95 -1 238 0 238 292
-3 293 -3 0 -229z"/>
<path d="M4193 2402 l0 -164 61 -44 c34 -24 66 -47 71 -52 6 -5 23 -17 38 -26
l27 -18 83 56 c45 31 90 62 100 70 15 12 17 33 17 177 l0 164 -198 0 -199 0 0
-163z"/>
<path d="M1097 1703 c-3 -5 -24 -80 -47 -167 -23 -87 -46 -169 -51 -182 l-9
-24 560 0 560 0 0 95 c0 90 -1 95 -22 100 -19 4 -289 55 -423 79 -81 15 -142
27 -165 31 -14 3 -52 10 -85 16 -33 6 -116 22 -183 35 -143 28 -130 26 -135
17z"/>
<path d="M5870 1706 c-3 -2 -21 -7 -40 -10 -19 -3 -60 -10 -90 -16 -50 -10
-400 -75 -460 -86 -49 -9 -286 -54 -337 -65 l-53 -10 0 -95 0 -94 556 0 556 0
-7 29 c-31 141 -93 346 -106 349 -8 1 -17 1 -19 -2z"/>
<path d="M542 832 c-30 -23 -40 -83 -18 -116 29 -46 123 -44 141 2 10 26 -11
36 -28 12 -19 -27 -61 -35 -81 -14 -25 25 -21 81 9 100 23 15 65 12 65 -6 0
-12 29 -20 35 -10 3 5 -3 18 -15 30 -25 25 -77 26 -108 2z"/>
<path d="M1083 833 c-4 -10 -11 -22 -17 -26 -8 -6 -7 -10 2 -14 6 -2 12 -22
12 -43 0 -21 3 -45 6 -54 7 -17 54 -22 54 -6 0 6 -7 10 -15 10 -11 0 -15 12
-15 45 0 33 4 45 15 45 8 0 15 5 15 10 0 6 -7 10 -15 10 -8 0 -15 6 -15 14 0
23 -19 29 -27 9z"/>
<path d="M1400 818 c0 -25 -3 -29 -12 -20 -18 18 -53 15 -71 -6 -23 -25 -21
-68 3 -92 22 -22 66 -27 73 -7 4 10 6 10 6 0 1 -7 8 -13 16 -13 12 0 15 16 15
85 0 69 -3 85 -15 85 -10 0 -15 -10 -15 -32z m-10 -47 c15 -30 12 -49 -11 -61
-25 -14 -49 2 -49 34 0 43 41 61 60 27z"/>
<path d="M1530 767 l0 -84 49 -1 c55 -1 68 8 77 55 8 43 -26 78 -67 69 -26 -5
-29 -3 -29 19 0 16 -6 25 -15 25 -12 0 -15 -16 -15 -83z m88 11 c30 -30 -2
-93 -36 -71 -21 13 -27 50 -12 69 15 17 32 18 48 2z"/>
<path d="M1958 778 c-3 -61 -6 -73 -21 -76 -12 -3 -20 4 -24 17 -6 24 -33 29
-33 7 0 -22 29 -46 55 -46 42 0 55 25 55 101 0 54 -3 69 -15 69 -11 0 -15 -17
-17 -72z"/>
<path d="M2338 835 c-34 -19 -46 -71 -26 -111 16 -35 67 -52 103 -36 15 7 25
8 25 2 0 -6 5 -10 10 -10 14 0 13 87 -2 92 -18 6 -68 -3 -68 -13 0 -5 12 -9
26 -9 35 0 29 -30 -9 -43 -22 -7 -32 -5 -48 9 -27 24 -25 78 3 98 29 21 40 20
69 -5 21 -18 24 -19 27 -4 8 39 -60 57 -110 30z"/>
<path d="M2516 834 c-35 -35 -14 -63 67 -88 24 -7 21 -33 -4 -41 -14 -5 -31 0
-51 15 -32 24 -49 19 -32 -8 18 -28 78 -38 108 -18 47 30 25 74 -47 92 -19 4
-27 12 -25 23 4 22 46 27 54 7 8 -20 34 -21 34 -1 0 33 -76 47 -104 19z"/>
<path d="M690 744 c0 -50 3 -64 15 -64 11 0 15 12 15 44 0 37 5 48 27 64 l26
19 -41 0 -42 0 0 -63z"/>
<path d="M790 790 c-11 -11 -20 -31 -20 -45 0 -53 69 -85 105 -49 22 22 11 30
-20 14 -20 -11 -27 -11 -40 0 -26 22 -16 31 30 27 41 -3 45 -2 45 18 0 49 -64
71 -100 35z m68 -17 c2 -9 -7 -13 -28 -13 -28 0 -31 2 -20 15 15 18 41 16 48
-2z"/>
<path d="M929 790 c-23 -19 -23 -19 -3 -20 11 0 25 5 31 11 13 13 43 5 43 -10
0 -5 -18 -12 -40 -16 -27 -4 -41 -13 -45 -26 -11 -33 11 -48 69 -46 l53 1 -5
51 c-6 74 -52 98 -103 55z m71 -64 c0 -18 -39 -31 -52 -18 -15 15 0 32 28 32
14 0 24 -6 24 -14z"/>
<path d="M1180 788 c-25 -28 -26 -62 0 -88 24 -24 63 -26 84 -4 25 24 9 35
-24 16 -27 -15 -32 -15 -40 -2 -13 21 -12 31 3 29 6 -1 29 -1 49 0 31 1 36 4
31 19 -19 53 -68 68 -103 30z m68 -15 c2 -9 -7 -13 -27 -13 -23 0 -29 4 -24
16 6 17 44 15 51 -3z"/>
<path d="M1675 793 c4 -10 15 -42 25 -70 19 -52 19 -53 -1 -63 -24 -14 -25
-30 0 -30 25 0 35 14 65 94 30 79 31 86 12 86 -12 0 -23 -23 -32 -68 -4 -23
-13 -26 -20 -6 -18 57 -28 74 -41 74 -10 0 -13 -6 -8 -17z"/>
<path d="M2020 756 c0 -63 10 -74 68 -73 l42 0 0 63 c0 49 -3 64 -14 64 -11 0
-16 -15 -18 -52 -3 -45 -6 -53 -23 -53 -17 0 -20 8 -23 53 -2 37 -7 52 -18 52
-10 0 -14 -14 -14 -54z"/>
<path d="M2160 745 c0 -51 3 -65 15 -65 11 0 15 12 15 49 0 36 4 50 17 55 24
10 32 -4 34 -57 2 -33 6 -47 16 -47 11 0 13 14 11 56 -3 66 -23 88 -58 66 -12
-7 -20 -8 -20 -2 0 5 -7 10 -15 10 -12 0 -15 -14 -15 -65z"/>
<path d="M2678 803 c-24 -6 -32 -33 -10 -33 10 0 23 5 29 11 14 14 46 4 41
-13 -3 -7 -17 -14 -33 -15 -39 -3 -63 -28 -49 -51 8 -12 26 -17 66 -18 l55 -1
-5 51 c-6 68 -30 86 -94 69z m62 -77 c0 -19 -39 -31 -53 -17 -9 9 -8 14 3 21
22 14 50 12 50 -4z"/>
<path d="M533 573 c-4 -10 -11 -22 -17 -26 -8 -6 -7 -10 2 -14 7 -3 12 -25 12
-59 0 -41 4 -54 15 -54 11 0 15 13 15 54 0 34 5 56 13 59 9 4 8 8 -3 16 -12 9
-12 11 3 17 9 3 14 10 11 15 -9 16 -44 10 -51 -8z"/>
<path d="M1120 505 c0 -69 3 -85 15 -85 12 0 15 14 15 62 l0 61 40 -61 c56
-88 70 -83 70 23 0 69 -3 85 -15 85 -12 0 -15 -14 -15 -62 l0 -61 -40 61 c-56
88 -70 83 -70 -23z"/>
<path d="M1800 505 c0 -69 3 -85 15 -85 10 0 15 11 15 35 0 35 0 35 45 35 50
0 72 23 59 63 -10 31 -22 37 -81 37 l-53 0 0 -85z m98 56 c8 -5 12 -17 10 -27
-2 -14 -13 -20 -41 -22 -35 -3 -37 -2 -37 27 0 27 3 31 28 31 15 0 33 -4 40
-9z"/>
<path d="M2200 580 c0 -5 7 -10 15 -10 8 0 15 5 15 10 0 6 -7 10 -15 10 -8 0
-15 -4 -15 -10z"/>
<path d="M2563 583 c-7 -3 -13 -11 -13 -18 0 -7 -6 -16 -12 -18 -10 -4 -10 -7
-1 -14 6 -5 13 -31 15 -58 3 -46 5 -50 31 -53 29 -4 37 12 12 22 -10 3 -15 19
-15 46 0 29 4 40 15 40 8 0 15 5 15 10 0 6 -6 10 -14 10 -8 0 -16 8 -18 18 -2
11 -9 17 -15 15z"/>
<path d="M600 484 c0 -49 3 -64 14 -64 11 0 16 14 18 47 2 38 8 50 26 59 28
14 19 21 -25 22 l-33 1 0 -65z"/>
<path d="M700 530 c-11 -11 -20 -31 -20 -45 0 -14 9 -34 20 -45 11 -11 31 -20
45 -20 14 0 34 9 45 20 11 11 20 31 20 45 0 14 -9 34 -20 45 -11 11 -31 20
-45 20 -14 0 -34 -9 -45 -20z m70 -14 c28 -34 -11 -94 -44 -67 -21 18 -20 57
2 70 23 14 28 13 42 -3z"/>
<path d="M830 485 c0 -51 3 -65 15 -65 11 0 15 12 15 49 0 35 4 51 16 55 26
10 34 -3 34 -55 0 -37 4 -49 15 -49 11 0 15 12 15 49 0 35 4 51 16 55 26 10
34 -3 34 -55 0 -37 4 -49 15 -49 19 0 21 100 3 118 -14 14 -54 16 -63 2 -4 -6
-13 -5 -25 3 -16 9 -24 9 -40 -1 -12 -7 -20 -8 -20 -2 0 5 -7 10 -15 10 -12 0
-15 -14 -15 -65z"/>
<path d="M1310 530 c-11 -11 -20 -31 -20 -45 0 -14 9 -34 20 -45 11 -11 31
-20 45 -20 14 0 34 9 45 20 11 11 20 31 20 45 0 14 -9 34 -20 45 -11 11 -31
20 -45 20 -14 0 -34 -9 -45 -20z m68 -12 c30 -30 -2 -93 -36 -71 -21 13 -27
50 -12 69 15 17 32 18 48 2z"/>
<path d="M1440 504 c0 -68 11 -82 65 -82 l45 1 0 64 c0 49 -3 63 -15 63 -10 0
-14 -12 -13 -46 0 -29 -4 -49 -13 -55 -25 -16 -34 -3 -37 49 -2 37 -7 52 -18
52 -10 0 -14 -12 -14 -46z"/>
<path d="M1580 485 c0 -51 3 -65 15 -65 11 0 15 12 15 49 0 35 4 51 16 55 26
10 34 -3 34 -55 0 -38 4 -49 15 -49 13 0 15 11 13 56 -3 66 -23 88 -58 66 -12
-7 -20 -8 -20 -2 0 5 -7 10 -15 10 -12 0 -15 -14 -15 -65z"/>
<path d="M1960 484 c0 -49 3 -64 14 -64 11 0 16 14 18 47 2 39 7 50 28 60 14
7 23 13 20 14 -3 1 -22 3 -42 4 l-38 4 0 -65z"/>
<path d="M2080 543 c-63 -23 -43 -123 25 -123 14 0 34 9 45 20 50 50 -2 127
-70 103z m48 -25 c32 -32 1 -89 -37 -68 -26 13 -28 55 -3 69 22 13 26 13 40
-1z"/>
<path d="M2200 471 c0 -54 -4 -81 -12 -84 -7 -2 -9 -8 -5 -13 4 -4 16 -3 25 2
24 16 31 174 7 174 -12 0 -15 -15 -15 -79z"/>
<path d="M2270 530 c-11 -11 -20 -31 -20 -45 0 -53 69 -85 105 -49 22 22 11
30 -20 14 -20 -11 -27 -11 -40 0 -25 21 -17 29 27 27 34 -2 43 2 46 16 5 25
-26 57 -55 57 -12 0 -32 -9 -43 -20z m68 -17 c2 -9 -7 -13 -27 -13 -31 0 -42
14 -18 23 19 8 40 3 45 -10z"/>
<path d="M2410 530 c-41 -41 -13 -110 46 -110 19 0 54 28 54 43 0 13 -23 7
-35 -9 -18 -26 -57 -1 -53 33 4 34 35 54 51 33 16 -20 37 -23 37 -5 0 35 -69
46 -100 15z"/>
</g>
</svg>
